# xmcd
#
# Track frame offsets: 
#        150
#        23202
#        44932
#        77736
#        98393
#        115486
#        131639
#        153490
#        176284
#        192363
#        211873
#        226942
#
# Disc length: 3262 seconds
#
# Revision: 9
# Processed by: cddbd v1.5.2PL0 Copyright (c) Steve Scherf et al.
# Submitted via: ExactAudioCopy v0.99pb3
#
DISCID=9a0cbc0c
DTITLE=Charlie Byrd - The Bossa Nova Years (With Ken Peplowski)
DYEAR=1991
DGENRE=Jazz
TTITLE0=Meditation
TTITLE1=One Note Samba
TTITLE2=Corcovado
TTITLE3=Triste
TTITLE4=Dindi
TTITLE5=O Pato
TTITLE6=The Girl From Ipanema
TTITLE7=Samba D'Orpheo
TTITLE8=How Insensitive
TTITLE9=Wave
TTITLE10=P'Ra Dizer Adeus (To Say Goodbye)
TTITLE11=O Nosso Amor
EXTD=YEAR: 1991
EXTT0=
EXTT1=
EXTT2=
EXTT3=
EXTT4=
EXTT5=
EXTT6=
EXTT7=
EXTT8=
EXTT9=
EXTT10=To Say Goodbye\n
EXTT11=
PLAYORDER=
